<?xml version="1.0" encoding="UTF-8"?>
<svg xmlns="http://www.w3.org/2000/svg" viewBox="0 0 500 500" width="500" height="500">
<path d="M102.27 75.14C104.19 76.54 108.33 75.77 110.73 75.77C117.73 75.77 124.73 75.77 131.74 75.77C150 75.77 168.26 75.77 186.53 75.77C194.34 75.77 206.2 74.48 213.53 76.03C213.75 192.07 213.98 308.1 214.21 424.14C214.16 424.31 214.1 424.47 214.05 424.64C213.81 429.59 213.57 434.54 213.34 439.5C170.24 439.5 127.14 439.5 84.04 439.5C84.04 318.46 84.05 197.42 84.06 76.38C89.6 76.3 95.14 76.22 100.68 76.14C101.21 75.81 101.74 75.47 102.27 75.14ZM285.9 75.44C286.04 75.38 286.18 75.33 286.32 75.27C323.45 75.52 360.59 75.78 397.73 76.03C397.89 191.96 398.04 307.89 398.2 423.82C397.99 429.05 397.77 434.27 397.55 439.5C354.4 439.52 311.26 439.55 268.11 439.57C268.2 318.54 268.29 197.51 268.38 76.48C272.34 75.55 276.98 76.17 281.05 76.16C282.52 76.15 285.08 76.67 285.9 75.44Z" fill="#fee40b" fill-rule="evenodd" stroke="#fee40b" stroke-width="0.25" stroke-linejoin="round"/>
<path d="M214.21 424.14C213.98 308.1 213.75 192.07 213.53 76.03C206.2 74.48 194.34 75.77 186.53 75.77C168.26 75.77 150 75.77 131.74 75.77C124.73 75.77 117.73 75.77 110.73 75.77C108.33 75.77 104.19 76.54 102.27 75.14C102.24 70.26 102.21 65.38 102.18 60.5C145.47 60.5 188.76 60.5 232.04 60.5C231.94 181.6 231.84 302.7 231.74 423.79C225.89 423.91 220.05 424.03 214.21 424.14ZM398.2 423.82C398.04 307.89 397.89 191.96 397.73 76.03C360.59 75.78 323.45 75.52 286.32 75.27C286.39 70.3 286.46 65.33 286.53 60.36C329.83 60.41 373.12 60.46 416.42 60.5C416.35 181.55 416.28 302.6 416.21 423.65C410.21 423.71 404.21 423.76 398.2 423.82Z" fill="#010100" fill-rule="evenodd" stroke="#010100" stroke-width="0.25" stroke-linejoin="round"/>
<path d="M285.9 75.44C285.08 76.67 282.52 76.15 281.05 76.16C276.98 76.17 272.34 75.55 268.38 76.48C268.29 197.51 268.2 318.54 268.11 439.57C268.01 318.47 267.91 197.36 267.81 76.26C273.84 75.98 279.87 75.71 285.9 75.44ZM84.06 76.38C84.05 197.42 84.04 318.46 84.04 439.5C127.14 439.5 170.24 439.5 213.34 439.5C213.57 434.54 213.81 429.59 214.05 424.64C214.01 429.67 213.97 434.7 213.93 439.73C170.47 439.8 127.02 439.88 83.56 439.95C81.99 436.66 83.11 421.7 83.11 417.12C83.11 398.25 83.11 379.38 83.11 360.5C83.11 293.68 83.11 226.86 83.11 160.05C83.11 138.74 83.11 117.43 83.11 96.12C83.11 91.1 83.11 86.07 83.11 81.05C83.11 79.48 82.47 76.76 84.06 76.38Z" fill="#ffffff" fill-rule="evenodd" stroke="#ffffff" stroke-width="0.25" stroke-linejoin="round"/>
</svg>